<svg viewBox="0 0 380 444" fill="none" xmlns="http://www.w3.org/2000/svg">
<path fill-rule="evenodd" clip-rule="evenodd" d="M349.783 0.648304C348.7 1.06561 342.721 2.64036 336.496 4.14686C305.752 11.5893 254.937 26.1443 230.771 34.4327C218.96 38.4825 197.739 46.0019 195.261 47.0141C194.179 47.4568 188.642 49.6448 182.959 51.8765C96.4036 85.8666 39.9923 127.564 14.9627 176.055C4.55557 196.217 0.806688 211.863 0.155137 237.859C-0.404882 260.24 0.509457 263.776 3.58218 251.116C14.7648 205.053 59.1087 171.087 148.019 140.483C164.788 134.711 180.983 129.533 205.103 122.234C273.664 101.485 304.581 89.8935 315.677 80.7775C329.939 69.0596 349.656 28.845 352.713 5.23869C353.436 -0.342912 353.222 -0.677982 349.783 0.648304ZM255.298 150.682C254.757 150.846 250.992 151.838 246.933 152.887C235.669 155.797 209.065 163.207 199.69 166.046C192.156 168.328 184.24 170.847 169.672 175.597C140.871 184.989 105.096 200.723 83.5596 213.469C66.6202 223.496 59.0585 228.888 47.0806 239.482C18.7076 264.579 5.77107 291.024 5.81438 323.84C5.82324 330.132 6.1687 335.753 6.58305 336.333C7.02004 336.943 7.85761 334.945 8.57511 331.58C14.0503 305.927 37.5445 283.45 77.9929 265.167C96.2235 256.927 111.575 251.399 152.94 238.183C210.831 219.685 222.229 215.157 231.185 207.091C239.469 199.631 247.693 184.687 253.321 166.869C255.525 159.889 257.484 150.162 256.656 150.316C256.45 150.353 255.84 150.519 255.298 150.682ZM360.61 210.642C271.452 226.909 209.149 243.413 155.893 264.872C109.623 283.517 71.5964 307.232 47.9103 332.217C20.0186 361.638 6.52105 392.622 5.22483 430.201L4.75635 443.762L7.27299 436.442C16.812 408.687 34.3409 388.64 64.8526 370.594C76.3876 363.772 98.8592 353.475 113.079 348.497C118.222 346.698 124.422 344.511 126.858 343.638C132.932 341.464 156.536 334.688 169.672 331.349C175.626 329.836 183.377 327.863 186.895 326.965C190.414 326.068 202.151 323.302 212.977 320.82C285.532 304.187 301.806 299.783 323.999 290.774C337.452 285.313 347.976 274.55 360.465 253.48C368.767 239.473 375.192 224.56 378.839 210.831C379.549 208.16 379.436 207.992 376.992 208.058C375.56 208.097 368.188 209.26 360.61 210.642Z" fill="#F31D3F"/>
</svg>
